<svg version="1.1" id="Layer_1" xmlns="http://www.w3.org/2000/svg" xmlns:xlink="http://www.w3.org/1999/xlink" x="0px" y="0px"
	 width="100%" viewBox="0 0 654 661" enable-background="new 0 0 654 661" xml:space="preserve">
<path fill="#FEFEFF" opacity="1.000000" stroke="none" 
	d="
M1.000000,331.000000 
	C1.000000,221.035797 1.000000,111.071594 1.000000,1.053698 
	C218.893234,1.053698 436.786499,1.053698 655.000000,1.053698 
	C655.000000,110.690536 655.000000,220.381393 654.531860,330.511414 
	C505.495941,330.945404 356.928162,330.932800 208.360382,330.938202 
	C139.240250,330.940704 70.120125,330.978302 1.000000,331.000000 
M369.775391,181.483276 
	C369.775421,155.321030 369.776550,129.158768 369.772552,102.996521 
	C369.772339,101.497490 369.822693,99.990181 369.689270,98.501076 
	C369.365479,94.886917 367.961548,92.872810 363.690033,93.039536 
	C355.204407,93.370750 346.696594,93.128708 338.197968,93.134933 
	C331.624390,93.139755 331.091705,93.651810 331.089539,100.275414 
	C331.080231,128.604202 331.167450,156.933411 331.013245,185.261337 
	C330.989166,189.685745 330.636047,194.370010 329.157959,198.474182 
	C325.234650,209.367767 317.065247,215.276794 305.464508,216.085220 
	C292.297455,217.002762 281.630890,212.836075 276.410187,199.876785 
	C274.468048,195.055771 273.244934,189.602463 273.188843,184.421310 
	C272.882080,156.095825 272.919830,127.764336 273.148956,99.437424 
	C273.190674,94.277321 271.543640,92.811646 266.560455,93.035355 
	C258.245209,93.408661 249.893616,93.347794 241.572037,93.053513 
	C237.096848,92.895256 235.848145,94.592560 235.867157,98.860184 
	C236.008270,130.521088 235.535049,162.190781 236.121231,193.841660 
	C236.557281,217.386475 248.798584,234.034103 269.856262,243.829971 
	C287.116638,251.859375 305.458893,252.048889 323.586670,247.613220 
	C339.954163,243.608276 353.364197,234.735199 361.843933,219.524063 
	C368.285187,207.969620 370.023682,195.443497 369.775391,181.483276 
M149.562637,245.987488 
	C156.889923,245.987854 164.217224,246.001129 171.544464,245.984650 
	C177.922562,245.970322 177.935532,245.955475 177.936172,239.542694 
	C177.939774,204.237579 177.935760,168.932465 177.936142,133.627350 
	C177.936234,125.806107 177.939514,125.809868 185.524155,125.813820 
	C195.849228,125.819199 206.174957,125.751755 216.499023,125.854507 
	C220.306107,125.892387 221.961090,124.308266 221.906616,120.487900 
	C221.802155,113.161972 221.814789,105.832550 221.911697,98.506340 
	C221.961685,94.726814 220.354691,93.095612 216.526581,93.101067 
	C177.890884,93.156136 139.255035,93.158035 100.619331,93.108841 
	C96.818031,93.103996 95.149490,94.678467 95.199448,98.484604 
	C95.293427,105.644272 95.356857,112.809669 95.168419,119.965721 
	C95.054779,124.281181 96.827515,125.926674 101.096581,125.863785 
	C111.585907,125.709267 122.079048,125.804245 132.570648,125.816681 
	C139.090302,125.824417 139.182831,125.926117 139.183044,132.625015 
	C139.184113,167.263992 139.166580,201.902969 139.187897,236.541931 
	C139.193985,246.441986 137.971451,246.016281 149.562637,245.987488 
M505.500000,202.941864 
	C521.984497,202.943390 538.469055,202.949234 554.953552,202.944366 
	C561.815369,202.942337 562.641907,202.184631 562.767395,195.255310 
	C563.099854,176.901306 556.564148,161.449539 542.676147,149.393219 
	C522.663879,132.020264 494.840790,130.746460 473.875366,145.058304 
	C456.547150,156.887253 447.977325,173.635071 448.824097,195.253204 
	C449.698090,217.565048 460.366302,233.320450 479.246826,243.840942 
	C494.326538,252.243561 510.408813,251.979019 526.540955,247.056274 
	C537.717163,243.645828 547.426941,237.772858 554.963135,228.674728 
	C556.414124,226.922989 558.467163,224.850037 554.676331,223.276352 
	C548.095703,220.544525 541.568726,217.658920 534.870483,215.251938 
	C533.191528,214.648605 530.264832,214.888916 529.079285,215.994125 
	C523.829956,220.887405 517.516663,222.839767 510.736694,224.214691 
	C499.019684,226.590759 483.783936,219.502609 478.202209,208.784317 
	C475.933014,204.426910 476.672546,203.023193 481.521851,202.967804 
	C489.180328,202.880310 496.840515,202.943451 505.500000,202.941864 
M419.919220,202.526413 
	C424.722382,190.686676 429.483765,178.829788 434.337158,167.010666 
	C445.251465,140.431900 456.198181,113.866394 467.167755,87.310371 
	C468.719940,83.552788 467.472656,81.991043 463.550446,82.026688 
	C457.723907,82.079651 451.878082,82.323097 446.075714,81.945114 
	C441.984161,81.678581 440.082214,83.428833 438.664551,86.942703 
	C432.264679,102.805168 425.677551,118.591942 419.216644,134.429947 
	C403.471313,173.027588 387.750488,211.635208 372.041229,250.247513 
	C369.633392,256.165833 367.339233,262.130402 364.472382,269.390717 
	C374.038116,269.390717 382.426453,269.548340 390.795959,269.222351 
	C392.065125,269.172913 393.770721,267.091553 394.389771,265.586243 
	C402.917297,244.850204 411.289734,224.050385 419.919220,202.526413 
z"/>
<path fill="#72ABD0" opacity="1.000000" stroke="none" 
	d="
M655.000000,334.000000 
	C655.000000,442.688110 655.000000,551.376221 654.540283,660.532166 
	C440.723846,661.000000 227.367111,661.000305 14.010379,660.997681 
	C10.346577,660.997620 6.682775,660.962708 3.012385,660.478943 
	C3.002807,553.396118 3.041598,446.778351 2.870770,340.160889 
	C2.862418,334.948242 4.356376,333.887726 9.295935,333.890594 
	C224.530563,334.014740 439.765289,333.998901 655.000000,334.000000 
M249.019150,500.500000 
	C249.022873,511.164032 249.128448,521.829590 248.971008,532.491272 
	C248.920853,535.888550 249.921005,537.280029 253.496124,537.187500 
	C261.322296,536.984863 269.160583,536.984497 276.987061,537.178772 
	C280.654175,537.269714 281.914673,536.061768 281.861389,532.296692 
	C281.665741,518.469604 281.703308,504.637054 281.891937,490.809845 
	C281.913788,489.209259 283.296448,486.396912 284.279602,486.290802 
	C286.463013,486.055176 288.953491,486.858795 291.000641,487.877869 
	C292.136658,488.443359 292.690948,490.263092 293.407684,491.572144 
	C301.122192,505.661774 308.741638,519.804626 316.623413,533.799866 
	C317.492889,535.343750 319.801086,536.950928 321.495331,537.010437 
	C330.293488,537.319031 339.108917,537.134277 347.918335,537.123230 
	C350.486145,537.119995 353.053955,537.122742 356.629639,537.122742 
	C355.592163,534.684265 355.188507,533.311340 354.474152,532.125488 
	C349.853912,524.456116 345.165527,516.827698 340.500275,509.185364 
	C335.748779,501.401794 330.950348,493.646179 326.281616,485.813232 
	C325.148651,483.912506 323.346893,481.586029 326.895813,480.102722 
	C340.532349,474.403290 348.263153,464.502075 349.233276,449.486115 
	C349.952942,438.347900 348.409637,428.142883 340.184265,419.650208 
	C330.854828,410.017639 319.025482,406.721741 306.358734,406.328430 
	C289.212128,405.796112 272.036407,406.269897 254.878082,405.999634 
	C250.223984,405.926331 248.897827,407.429230 248.926636,412.022797 
	C249.109467,441.180939 249.019348,470.340729 249.019150,500.500000 
M493.309082,406.093536 
	C487.143677,406.093445 480.951202,406.448853 474.821350,405.981934 
	C469.830902,405.601776 467.433990,407.536072 465.581024,412.019867 
	C451.354248,446.445862 436.905365,480.779999 422.550201,515.153015 
	C419.643127,522.113892 416.840973,529.118591 413.575043,537.120972 
	C425.014221,537.120972 435.290924,536.979980 445.560150,537.194885 
	C449.328857,537.273743 450.803070,535.556946 451.872955,532.284973 
	C453.722351,526.628784 456.174194,521.168762 458.000549,515.506226 
	C458.966095,512.512512 460.647034,511.864044 463.512634,511.896698 
	C475.175690,512.029541 486.841095,511.956085 498.505646,511.953583 
	C508.224701,511.951477 508.224701,511.948364 511.379211,521.237061 
	C516.773865,537.122192 516.773865,537.122437 533.762390,537.119385 
	C538.761475,537.118469 543.760742,537.137817 548.759521,537.101318 
	C550.361816,537.089600 551.963013,536.928284 553.920288,536.814758 
	C553.606018,535.320251 553.546448,534.334351 553.194031,533.467346 
	C548.470581,521.846130 543.753418,510.221893 538.942810,498.636566 
	C526.879883,469.585693 514.640747,440.606720 502.815491,411.459656 
	C500.998535,406.981140 498.587189,405.519287 493.309082,406.093536 
M216.724594,478.697632 
	C207.434677,456.424866 197.978470,434.218781 188.992615,411.824005 
	C187.155716,407.246063 184.829300,405.747742 180.145813,405.996582 
	C173.502914,406.349518 166.807968,406.399567 160.172806,405.982239 
	C155.774902,405.705658 153.547089,407.359558 151.976837,411.263214 
	C147.473358,422.458801 142.731613,433.558685 138.070526,444.690765 
	C127.380249,470.222260 116.665543,495.743561 106.001877,521.286133 
	C103.937248,526.231506 102.059929,531.255066 99.763733,537.087036 
	C111.864670,537.087036 122.822395,537.245422 133.763229,536.887329 
	C135.137283,536.842346 136.916031,534.283569 137.657471,532.530212 
	C140.046112,526.881531 142.177612,521.111694 144.119537,515.292175 
	C145.026169,512.575195 146.518967,511.869202 149.238419,511.895020 
	C162.726822,512.022949 176.217377,511.998230 189.706497,511.916779 
	C192.679977,511.898834 194.552719,512.366272 195.423294,515.860291 
	C196.452744,519.992004 198.554077,523.851562 200.128983,527.853394 
	C203.773865,537.115173 203.758774,537.120972 213.962814,537.119629 
	C217.293579,537.119141 220.624359,537.120117 223.955124,537.120239 
	C229.377335,537.120361 234.799545,537.120300 240.983612,537.120300 
	C232.741531,517.214172 224.908813,498.296753 216.724594,478.697632 
M403.786591,433.500000 
	C403.786133,426.005890 403.646606,418.508057 403.845154,411.019226 
	C403.941284,407.394073 402.791382,405.922211 399.006989,406.031067 
	C391.519073,406.246399 384.005554,406.378601 376.531586,405.989319 
	C371.432281,405.723724 370.023834,407.474792 370.048279,412.509125 
	C370.239197,451.810822 370.156982,491.113831 370.159882,530.416443 
	C370.159943,531.415649 369.769257,532.719177 370.252655,533.354126 
	C371.464874,534.946472 373.024292,537.388611 374.533295,537.454407 
	C382.505005,537.802307 390.504364,537.461426 398.493805,537.482239 
	C402.720306,537.493286 403.924561,535.727722 403.897125,531.423523 
	C403.691223,499.116791 403.785675,466.808075 403.786591,433.500000 
z"/>
<path fill="#83B5D4" opacity="1.000000" stroke="none" 
	d="
M655.000000,333.625000 
	C439.765289,333.998901 224.530563,334.014740 9.295935,333.890594 
	C4.356376,333.887726 2.862418,334.948242 2.870770,340.160889 
	C3.041598,446.778351 3.002807,553.396118 2.675942,660.501221 
	C1.897393,660.992432 1.448696,660.996216 1.000000,661.000000 
	C1.000000,551.312439 1.000000,441.624878 1.000000,331.468628 
	C70.120125,330.978302 139.240250,330.940704 208.360382,330.938202 
	C356.928162,330.932800 505.495941,330.945404 654.531860,330.975311 
	C655.000000,331.750000 655.000000,332.500000 655.000000,333.625000 
z"/>
<path fill="#ABD9F2" opacity="1.000000" stroke="none" 
	d="
M1.000000,661.500000 
	C1.448696,660.996216 1.897393,660.992432 2.682531,660.966309 
	C6.682775,660.962708 10.346577,660.997620 14.010379,660.997681 
	C227.367111,661.000305 440.723846,661.000000 654.540283,661.000000 
	C654.833374,661.333313 654.684082,661.943848 654.497192,661.955566 
	C653.169128,662.039062 651.833313,662.000000 650.500000,662.000000 
	C434.000000,662.000000 217.500000,662.000000 1.000000,661.500000 
z"/>
<path fill="#76AED1" opacity="1.000000" stroke="none" 
	d="
M369.775177,181.979111 
	C370.023682,195.443497 368.285187,207.969620 361.843933,219.524063 
	C353.364197,234.735199 339.954163,243.608276 323.586670,247.613220 
	C305.458893,252.048889 287.116638,251.859375 269.856262,243.829971 
	C248.798584,234.034103 236.557281,217.386475 236.121231,193.841660 
	C235.535049,162.190781 236.008270,130.521088 235.867157,98.860184 
	C235.848145,94.592560 237.096848,92.895256 241.572037,93.053513 
	C249.893616,93.347794 258.245209,93.408661 266.560455,93.035355 
	C271.543640,92.811646 273.190674,94.277321 273.148956,99.437424 
	C272.919830,127.764336 272.882080,156.095825 273.188843,184.421310 
	C273.244934,189.602463 274.468048,195.055771 276.410187,199.876785 
	C281.630890,212.836075 292.297455,217.002762 305.464508,216.085220 
	C317.065247,215.276794 325.234650,209.367767 329.157959,198.474182 
	C330.636047,194.370010 330.989166,189.685745 331.013245,185.261337 
	C331.167450,156.933411 331.080231,128.604202 331.089539,100.275414 
	C331.091705,93.651810 331.624390,93.139755 338.197968,93.134933 
	C346.696594,93.128708 355.204407,93.370750 363.690033,93.039536 
	C367.961548,92.872810 369.365479,94.886917 369.689270,98.501076 
	C369.822693,99.990181 369.772339,101.497490 369.772552,102.996521 
	C369.776550,129.158768 369.775421,155.321030 369.775177,181.979111 
z"/>
<path fill="#77AED1" opacity="1.000000" stroke="none" 
	d="
M149.074219,245.988007 
	C137.971451,246.016281 139.193985,246.441986 139.187897,236.541931 
	C139.166580,201.902969 139.184113,167.263992 139.183044,132.625015 
	C139.182831,125.926117 139.090302,125.824417 132.570648,125.816681 
	C122.079048,125.804245 111.585907,125.709267 101.096581,125.863785 
	C96.827515,125.926674 95.054779,124.281181 95.168419,119.965721 
	C95.356857,112.809669 95.293427,105.644272 95.199448,98.484604 
	C95.149490,94.678467 96.818031,93.103996 100.619331,93.108841 
	C139.255035,93.158035 177.890884,93.156136 216.526581,93.101067 
	C220.354691,93.095612 221.961685,94.726814 221.911697,98.506340 
	C221.814789,105.832550 221.802155,113.161972 221.906616,120.487900 
	C221.961090,124.308266 220.306107,125.892387 216.499023,125.854507 
	C206.174957,125.751755 195.849228,125.819199 185.524155,125.813820 
	C177.939514,125.809868 177.936234,125.806107 177.936142,133.627350 
	C177.935760,168.932465 177.939774,204.237579 177.936172,239.542694 
	C177.935532,245.955475 177.922562,245.970322 171.544464,245.984650 
	C164.217224,246.001129 156.889923,245.987854 149.074219,245.988007 
z"/>
<path fill="#79AFD1" opacity="1.000000" stroke="none" 
	d="
M505.000000,202.942352 
	C496.840515,202.943451 489.180328,202.880310 481.521851,202.967804 
	C476.672546,203.023193 475.933014,204.426910 478.202209,208.784317 
	C483.783936,219.502609 499.019684,226.590759 510.736694,224.214691 
	C517.516663,222.839767 523.829956,220.887405 529.079285,215.994125 
	C530.264832,214.888916 533.191528,214.648605 534.870483,215.251938 
	C541.568726,217.658920 548.095703,220.544525 554.676331,223.276352 
	C558.467163,224.850037 556.414124,226.922989 554.963135,228.674728 
	C547.426941,237.772858 537.717163,243.645828 526.540955,247.056274 
	C510.408813,251.979019 494.326538,252.243561 479.246826,243.840942 
	C460.366302,233.320450 449.698090,217.565048 448.824097,195.253204 
	C447.977325,173.635071 456.547150,156.887253 473.875366,145.058304 
	C494.840790,130.746460 522.663879,132.020264 542.676147,149.393219 
	C556.564148,161.449539 563.099854,176.901306 562.767395,195.255310 
	C562.641907,202.184631 561.815369,202.942337 554.953552,202.944366 
	C538.469055,202.949234 521.984497,202.943390 505.000000,202.942352 
M522.455200,180.909698 
	C524.948303,180.907349 527.442566,180.951279 529.934326,180.891617 
	C533.558655,180.804855 535.377563,179.290802 532.529358,176.088882 
	C528.949158,172.064209 525.429321,167.595367 520.949280,164.833847 
	C506.686005,156.041977 488.951355,160.950378 479.120636,174.243988 
	C478.070221,175.664444 478.018280,177.823288 477.503143,179.639603 
	C479.193665,180.063004 480.881409,180.840195 482.575195,180.853577 
	C495.538605,180.955963 508.503174,180.909622 522.455200,180.909698 
z"/>
<path fill="#79AFD1" opacity="1.000000" stroke="none" 
	d="
M419.809692,202.896301 
	C411.289734,224.050385 402.917297,244.850204 394.389771,265.586243 
	C393.770721,267.091553 392.065125,269.172913 390.795959,269.222351 
	C382.426453,269.548340 374.038116,269.390717 364.472382,269.390717 
	C367.339233,262.130402 369.633392,256.165833 372.041229,250.247513 
	C387.750488,211.635208 403.471313,173.027588 419.216644,134.429947 
	C425.677551,118.591942 432.264679,102.805168 438.664551,86.942703 
	C440.082214,83.428833 441.984161,81.678581 446.075714,81.945114 
	C451.878082,82.323097 457.723907,82.079651 463.550446,82.026688 
	C467.472656,81.991043 468.719940,83.552788 467.167755,87.310371 
	C456.198181,113.866394 445.251465,140.431900 434.337158,167.010666 
	C429.483765,178.829788 424.722382,190.686676 419.809692,202.896301 
z"/>
<path fill="#FAFDFE" opacity="1.000000" stroke="none" 
	d="
M249.019165,500.000000 
	C249.019348,470.340729 249.109467,441.180939 248.926636,412.022797 
	C248.897827,407.429230 250.223984,405.926331 254.878082,405.999634 
	C272.036407,406.269897 289.212128,405.796112 306.358734,406.328430 
	C319.025482,406.721741 330.854828,410.017639 340.184265,419.650208 
	C348.409637,428.142883 349.952942,438.347900 349.233276,449.486115 
	C348.263153,464.502075 340.532349,474.403290 326.895813,480.102722 
	C323.346893,481.586029 325.148651,483.912506 326.281616,485.813232 
	C330.950348,493.646179 335.748779,501.401794 340.500275,509.185364 
	C345.165527,516.827698 349.853912,524.456116 354.474152,532.125488 
	C355.188507,533.311340 355.592163,534.684265 356.629639,537.122742 
	C353.053955,537.122742 350.486145,537.119995 347.918335,537.123230 
	C339.108917,537.134277 330.293488,537.319031 321.495331,537.010437 
	C319.801086,536.950928 317.492889,535.343750 316.623413,533.799866 
	C308.741638,519.804626 301.122192,505.661774 293.407684,491.572144 
	C292.690948,490.263092 292.136658,488.443359 291.000641,487.877869 
	C288.953491,486.858795 286.463013,486.055176 284.279602,486.290802 
	C283.296448,486.396912 281.913788,489.209259 281.891937,490.809845 
	C281.703308,504.637054 281.665741,518.469604 281.861389,532.296692 
	C281.914673,536.061768 280.654175,537.269714 276.987061,537.178772 
	C269.160583,536.984497 261.322296,536.984863 253.496124,537.187500 
	C249.921005,537.280029 248.920853,535.888550 248.971008,532.491272 
	C249.128448,521.829590 249.022873,511.164032 249.019165,500.000000 
M309.182007,458.890808 
	C315.648132,455.535400 318.420074,450.076141 316.634125,443.171173 
	C315.056854,437.073029 309.867462,434.174683 303.989929,433.396423 
	C297.756866,432.571167 291.413452,432.320099 285.123840,432.382812 
	C283.735718,432.396667 281.252502,434.725250 281.181824,436.087006 
	C280.794037,443.558990 280.856293,451.067566 281.155060,458.547943 
	C281.200531,459.686676 283.277740,461.676941 284.431549,461.688812 
	C292.524078,461.772095 300.784332,462.928467 309.182007,458.890808 
z"/>
<path fill="#FAFDFE" opacity="1.000000" stroke="none" 
	d="
M493.777039,406.093628 
	C498.587189,405.519287 500.998535,406.981140 502.815491,411.459656 
	C514.640747,440.606720 526.879883,469.585693 538.942810,498.636566 
	C543.753418,510.221893 548.470581,521.846130 553.194031,533.467346 
	C553.546448,534.334351 553.606018,535.320251 553.920288,536.814758 
	C551.963013,536.928284 550.361816,537.089600 548.759521,537.101318 
	C543.760742,537.137817 538.761475,537.118469 533.762390,537.119385 
	C516.773865,537.122437 516.773865,537.122192 511.379211,521.237061 
	C508.224701,511.948364 508.224701,511.951477 498.505646,511.953583 
	C486.841095,511.956085 475.175690,512.029541 463.512634,511.896698 
	C460.647034,511.864044 458.966095,512.512512 458.000549,515.506226 
	C456.174194,521.168762 453.722351,526.628784 451.872955,532.284973 
	C450.803070,535.556946 449.328857,537.273743 445.560150,537.194885 
	C435.290924,536.979980 425.014221,537.120972 413.575043,537.120972 
	C416.840973,529.118591 419.643127,522.113892 422.550201,515.153015 
	C436.905365,480.779999 451.354248,446.445862 465.581024,412.019867 
	C467.433990,407.536072 469.830902,405.601776 474.821350,405.981934 
	C480.951202,406.448853 487.143677,406.093445 493.777039,406.093628 
M493.402771,469.974487 
	C490.552765,462.023285 487.702759,454.072083 484.852753,446.120880 
	C484.279694,445.944366 483.706604,445.767822 483.133545,445.591278 
	C482.800812,446.358948 482.429321,447.112335 482.141235,447.896393 
	C478.038666,459.061493 473.946228,470.230316 469.854218,481.399261 
	C468.621033,484.765167 470.807587,485.051544 473.207581,485.061951 
	C478.363434,485.084320 483.519409,485.066101 488.675354,485.067169 
	C498.602264,485.069214 498.600739,485.070496 495.460999,475.867310 
	C494.874237,474.147369 494.305817,472.421204 493.402771,469.974487 
z"/>
<path fill="#FAFDFE" opacity="1.000000" stroke="none" 
	d="
M216.900360,479.038483 
	C224.908813,498.296753 232.741531,517.214172 240.983612,537.120300 
	C234.799545,537.120300 229.377335,537.120361 223.955124,537.120239 
	C220.624359,537.120117 217.293579,537.119141 213.962814,537.119629 
	C203.758774,537.120972 203.773865,537.115173 200.128983,527.853394 
	C198.554077,523.851562 196.452744,519.992004 195.423294,515.860291 
	C194.552719,512.366272 192.679977,511.898834 189.706497,511.916779 
	C176.217377,511.998230 162.726822,512.022949 149.238419,511.895020 
	C146.518967,511.869202 145.026169,512.575195 144.119537,515.292175 
	C142.177612,521.111694 140.046112,526.881531 137.657471,532.530212 
	C136.916031,534.283569 135.137283,536.842346 133.763229,536.887329 
	C122.822395,537.245422 111.864670,537.087036 99.763733,537.087036 
	C102.059929,531.255066 103.937248,526.231506 106.001877,521.286133 
	C116.665543,495.743561 127.380249,470.222260 138.070526,444.690765 
	C142.731613,433.558685 147.473358,422.458801 151.976837,411.263214 
	C153.547089,407.359558 155.774902,405.705658 160.172806,405.982239 
	C166.807968,406.399567 173.502914,406.349518 180.145813,405.996582 
	C184.829300,405.747742 187.155716,407.246063 188.992615,411.824005 
	C197.978470,434.218781 207.434677,456.424866 216.900360,479.038483 
M180.418442,472.079224 
	C178.167236,465.875092 176.019058,459.630646 173.613998,453.486725 
	C172.655136,451.037231 171.128540,448.809998 169.860397,446.481567 
	C168.627197,448.887573 167.179001,451.209503 166.199799,453.714783 
	C162.832733,462.329254 159.564850,470.984192 156.395660,479.673492 
	C155.097885,483.231720 155.877533,485.369293 160.395096,485.132599 
	C165.703781,484.854492 171.038162,485.067047 176.361389,485.065735 
	C185.027023,485.063599 185.015137,485.067627 182.067200,477.083099 
	C181.549713,475.681580 181.178848,474.225952 180.418442,472.079224 
z"/>
<path fill="#FAFDFE" opacity="1.000000" stroke="none" 
	d="
M403.786377,434.000000 
	C403.785675,466.808075 403.691223,499.116791 403.897125,531.423523 
	C403.924561,535.727722 402.720306,537.493286 398.493805,537.482239 
	C390.504364,537.461426 382.505005,537.802307 374.533295,537.454407 
	C373.024292,537.388611 371.464874,534.946472 370.252655,533.354126 
	C369.769257,532.719177 370.159943,531.415649 370.159882,530.416443 
	C370.156982,491.113831 370.239197,451.810822 370.048279,412.509125 
	C370.023834,407.474792 371.432281,405.723724 376.531586,405.989319 
	C384.005554,406.378601 391.519073,406.246399 399.006989,406.031067 
	C402.791382,405.922211 403.941284,407.394073 403.845154,411.019226 
	C403.646606,418.508057 403.786133,426.005890 403.786377,434.000000 
z"/>
<path fill="#F0F8FB" opacity="1.000000" stroke="none" 
	d="
M521.961304,180.909607 
	C508.503174,180.909622 495.538605,180.955963 482.575195,180.853577 
	C480.881409,180.840195 479.193665,180.063004 477.503143,179.639603 
	C478.018280,177.823288 478.070221,175.664444 479.120636,174.243988 
	C488.951355,160.950378 506.686005,156.041977 520.949280,164.833847 
	C525.429321,167.595367 528.949158,172.064209 532.529358,176.088882 
	C535.377563,179.290802 533.558655,180.804855 529.934326,180.891617 
	C527.442566,180.951279 524.948303,180.907349 521.961304,180.909607 
z"/>
<path fill="#79AFD1" opacity="1.000000" stroke="none" 
	d="
M308.837219,459.044678 
	C300.784332,462.928467 292.524078,461.772095 284.431549,461.688812 
	C283.277740,461.676941 281.200531,459.686676 281.155060,458.547943 
	C280.856293,451.067566 280.794037,443.558990 281.181824,436.087006 
	C281.252502,434.725250 283.735718,432.396667 285.123840,432.382812 
	C291.413452,432.320099 297.756866,432.571167 303.989929,433.396423 
	C309.867462,434.174683 315.056854,437.073029 316.634125,443.171173 
	C318.420074,450.076141 315.648132,455.535400 308.837219,459.044678 
z"/>
<path fill="#7CAFCF" opacity="1.000000" stroke="none" 
	d="
M493.565857,470.336182 
	C494.305817,472.421204 494.874237,474.147369 495.460999,475.867310 
	C498.600739,485.070496 498.602264,485.069214 488.675354,485.067169 
	C483.519409,485.066101 478.363434,485.084320 473.207581,485.061951 
	C470.807587,485.051544 468.621033,484.765167 469.854218,481.399261 
	C473.946228,470.230316 478.038666,459.061493 482.141235,447.896393 
	C482.429321,447.112335 482.800812,446.358948 483.133545,445.591278 
	C483.706604,445.767822 484.279694,445.944366 484.852753,446.120880 
	C487.702759,454.072083 490.552765,462.023285 493.565857,470.336182 
z"/>
<path fill="#7CAFCF" opacity="1.000000" stroke="none" 
	d="
M180.579346,472.437256 
	C181.178848,474.225952 181.549713,475.681580 182.067200,477.083099 
	C185.015137,485.067627 185.027023,485.063599 176.361389,485.065735 
	C171.038162,485.067047 165.703781,484.854492 160.395096,485.132599 
	C155.877533,485.369293 155.097885,483.231720 156.395660,479.673492 
	C159.564850,470.984192 162.832733,462.329254 166.199799,453.714783 
	C167.179001,451.209503 168.627197,448.887573 169.860397,446.481567 
	C171.128540,448.809998 172.655136,451.037231 173.613998,453.486725 
	C176.019058,459.630646 178.167236,465.875092 180.579346,472.437256 
z"/>
</svg>